<?xml version="1.0" standalone="no"?>
<!DOCTYPE svg PUBLIC "-//W3C//DTD SVG 20010904//EN"
 "http://www.w3.org/TR/2001/REC-SVG-20010904/DTD/svg10.dtd">
<svg version="1.0" xmlns="http://www.w3.org/2000/svg"
 width="1024.000000pt" height="576.000000pt" viewBox="0 0 1024.000000 576.000000"
 preserveAspectRatio="xMidYMid meet">

<g transform="translate(0.000000,576.000000) scale(0.100000,-0.100000)"
fill="#000000" stroke="none">
<path d="M5064 3745 c-86 -19 -160 -59 -220 -121 -72 -74 -98 -141 -99 -259 0
-82 3 -96 33 -157 55 -111 107 -145 362 -233 238 -82 268 -100 276 -172 13
-103 -113 -169 -249 -129 -88 26 -137 76 -152 159 l-7 37 -144 0 -144 0 0 -24
c0 -51 22 -134 50 -193 52 -105 154 -180 296 -217 72 -19 229 -21 306 -5 131
27 250 115 304 224 26 55 29 69 29 165 0 96 -2 110 -29 163 -56 109 -134 158
-370 232 -154 47 -200 65 -227 87 -44 36 -52 108 -16 149 28 34 74 49 148 49
104 0 170 -43 185 -119 l7 -31 150 0 150 0 -7 47 c-16 116 -107 244 -215 301
-110 59 -276 78 -417 47z"/>
<path d="M1112 3619 l3 -131 193 2 192 1 0 -526 0 -525 155 0 155 0 0 525 0
526 190 -3 190 -3 0 133 0 132 -540 0 -541 0 3 -131z"/>
<path d="M3485 3095 c0 -363 1 -510 2 -327 2 184 2 481 0 660 -1 180 -2 30 -2
-333z"/>
<path d="M4005 3730 c50 -4 108 -13 129 -19 52 -14 60 -6 9 9 -21 6 -81 13
-133 15 l-95 4 90 -9z"/>
<path d="M5810 3090 l0 -650 149 0 150 0 3 293 c3 289 3 293 28 342 33 65 75
90 155 90 75 0 122 -25 150 -80 18 -37 20 -64 23 -342 l4 -303 149 0 149 0 0
313 c0 332 -7 391 -51 480 -40 79 -86 124 -166 164 -71 35 -83 38 -162 38 -73
0 -95 -5 -146 -28 -33 -16 -77 -44 -97 -65 l-38 -36 0 217 0 217 -150 0 -150
0 0 -650z"/>
<path d="M4201 3696 c2 -2 32 -15 66 -29 171 -69 289 -203 329 -374 25 -106
15 -334 -19 -431 -64 -184 -196 -299 -422 -368 -87 -27 -98 -28 -373 -32 -156
-2 -281 -6 -279 -9 10 -9 502 -4 555 7 314 59 498 218 553 475 18 88 16 285
-4 369 -38 154 -144 280 -300 356 -70 34 -122 51 -106 36z"/>
<path d="M3935 3491 c126 -6 147 -10 197 -34 67 -33 121 -90 157 -166 24 -51
26 -66 26 -186 0 -122 -2 -134 -29 -192 -65 -141 -208 -213 -423 -213 l-63 0
0 390 c0 253 -4 390 -10 390 -15 0 -14 -762 2 -778 16 -16 123 -15 219 2 194
35 295 141 320 337 25 198 -50 357 -200 428 -52 24 -67 26 -196 27 l-140 1
140 -6z"/>
<path d="M7285 3433 c-192 -25 -373 -180 -419 -358 -48 -182 3 -376 133 -506
102 -101 217 -149 363 -149 160 0 277 49 379 158 106 113 145 225 137 393 -4
86 -9 106 -41 174 -93 196 -327 318 -552 288z m161 -273 c38 -15 82 -60 104
-106 41 -89 23 -240 -38 -307 -47 -53 -168 -75 -230 -43 -78 41 -122 126 -122
235 0 173 135 278 286 221z"/>
<path d="M8455 3425 c-75 -20 -107 -34 -142 -61 l-33 -25 0 40 0 41 -155 0
-155 0 0 -690 0 -690 155 0 155 0 0 239 0 240 50 -34 c79 -53 137 -68 248 -63
85 3 106 8 167 38 176 84 275 256 275 475 -1 108 -12 160 -51 241 -96 195
-318 302 -514 249z m123 -271 c174 -72 189 -334 25 -435 -75 -46 -207 -25
-270 43 -54 58 -71 192 -34 273 50 109 175 163 279 119z"/>
</g>
</svg>
